<?xml version="1.0"?>
<svg width="122.88" height="122.88" xmlns="http://www.w3.org/2000/svg" xmlns:svg="http://www.w3.org/2000/svg" enable-background="new 0 0 122.88 122.88" version="1.1" xml:space="preserve">
 <g class="layer">
  <title>Layer 1</title>
  <g id="svg_1">
   <path d="m30.94,16c2.02,0 3.95,0.38 5.71,1.06l0.03,0.01c1.82,0.71 3.45,1.74 4.82,3.02l0,0c1.38,1.28 2.49,2.82 3.24,4.53c0.73,1.64 1.13,3.45 1.13,5.33c0,1.89 -0.4,3.69 -1.13,5.33l-0.01,0.02c-0.76,1.7 -1.86,3.22 -3.23,4.5l0,0c-1.37,1.28 -3.02,2.32 -4.85,3.03c-1.76,0.68 -3.69,1.06 -5.71,1.06c-2.02,0 -3.95,-0.38 -5.71,-1.06l-0.03,-0.01c-1.82,-0.71 -3.45,-1.74 -4.82,-3.02l0,0c-1.38,-1.28 -2.49,-2.82 -3.24,-4.52c-0.73,-1.65 -1.13,-3.45 -1.13,-5.33s0.4,-3.69 1.13,-5.33l0.01,-0.02c0.76,-1.7 1.86,-3.22 3.23,-4.5l0,0c1.38,-1.28 3.02,-2.32 4.85,-3.03c1.76,-0.68 3.69,-1.06 5.71,-1.06l0,0zm-10.81,21.44l0.06,-0.03c1.43,-0.75 5.17,-0.99 6.72,-2c0.11,-0.16 0.24,-0.39 0.36,-0.64c0.18,-0.38 0.34,-0.79 0.44,-1.08c-0.43,-0.48 -0.8,-1.01 -1.16,-1.54l-1.17,-1.75c-0.43,-0.6 -0.65,-1.14 -0.67,-1.59c-0.01,-0.21 0.03,-0.4 0.12,-0.57c0.09,-0.18 0.22,-0.32 0.4,-0.44c0.09,-0.05 0.18,-0.1 0.28,-0.13c-0.08,-0.95 -0.1,-2.14 -0.06,-3.14c0.02,-0.24 0.08,-0.47 0.14,-0.71c0.3,-1 1.05,-1.81 1.98,-2.36c0.51,-0.31 1.08,-0.54 1.66,-0.69c0.37,-0.1 -0.32,-1.21 0.07,-1.25c1.87,-0.18 4.88,1.41 6.19,2.73c0.65,0.66 1.06,1.53 1.15,2.69l-0.07,2.85l0,0c0.33,0.09 0.53,0.29 0.62,0.6c0.09,0.35 -0.01,0.83 -0.32,1.5l0,0c0,0.01 -0.01,0.02 -0.02,0.04l-1.34,2.06c-0.49,0.76 -0.99,1.52 -1.64,2.11c0.06,0.08 0.12,0.16 0.18,0.24c0.27,0.36 0.53,0.73 0.88,1.05c0.01,0.01 0.02,0.02 0.03,0.03c1.54,1.02 5.29,1.26 6.73,2.01l0.06,0.03c1.67,-2.09 2.66,-4.69 2.66,-7.5c0,-3.47 -1.51,-6.61 -3.94,-8.89c-2.43,-2.28 -5.8,-3.68 -9.52,-3.68c-3.72,0 -7.09,1.41 -9.52,3.68c-2.44,2.27 -3.95,5.41 -3.95,8.88c0,2.81 0.99,5.4 2.66,7.5l0,0l0,0z" id="svg_2"/>
  </g>
 </g>

</svg>